<svg xmlns="http://www.w3.org/2000/svg" viewBox="0 0 260 400" width="260" height="400"><clipPath id="cl"><path d="M 31,24 Q 130,0 229,24 L 208,380 Q 130,400 52,380 Z"/></clipPath><g clip-path="url(#cl)"><defs>
      <pattern id="hex" width="26" height="45" patternUnits="userSpaceOnUse">
        <g fill="none" stroke="#1D1D25" stroke-width="1"><path d="M13,0 L26,7.5 L26,22.5 L13,30 L0,22.5 L0,7.5 Z"/></g>
      </pattern>
      <filter id="glow" x="-30%" y="-30%" width="160%" height="160%"><feGaussianBlur stdDeviation="3" result="b"/><feMerge><feMergeNode in="b"/><feMergeNode in="SourceGraphic"/></feMerge></filter>
    </defs>
    <rect width="260" height="400" fill="#0A0A0C"/><rect width="260" height="400" fill="url(#hex)"/><polygon points="-10,200 270,56 270,64 -10,208" fill="#00E5FF" opacity="0.9" filter="url(#glow)"/><polygon points="-10,264 270,120 270,124 -10,268" fill="#19c9b4" opacity="0.55" filter="url(#glow)"/><polygon points="-10,328 270,184 270,190 -10,334" fill="#FF2D6B" opacity="0.85" filter="url(#glow)"/></g><g clip-path="url(#cl)"><rect width="260" height="400" fill="none" stroke="#000" stroke-opacity="0.15" stroke-width="3"/></g></svg>