<svg xmlns="http://www.w3.org/2000/svg" viewBox="0 0 260 400" width="260" height="400"><clipPath id="cl"><path d="M 31,24 Q 130,0 229,24 L 208,380 Q 130,400 52,380 Z"/></clipPath><g clip-path="url(#cl)"><defs><linearGradient id="fon" x1="0" y1="0" x2="0" y2="1">
      <stop offset="0" stop-color="#12556B"/><stop offset="1" stop-color="#051E2A"/></linearGradient></defs>
    <rect width="260" height="400" fill="url(#fon)"/><path d="M -10,60 C 65,48 130,72 270,53 L 270,78 C 130,90 65,66 -10,78 Z" fill="#2FD4C4" opacity="0.35"/><path d="M -10,153 C 65,141 130,165 270,146 L 270,171 C 130,183 65,159 -10,171 Z" fill="#2FD4C4" opacity="0.55"/><path d="M -10,247 C 65,235 130,259 270,239 L 270,265 C 130,277 65,253 -10,265 Z" fill="#2FD4C4" opacity="0.75"/><path d="M -10,340 C 65,328 130,352 270,333 L 270,358 C 130,370 65,346 -10,358 Z" fill="#2FD4C4" opacity="0.35"/></g><g clip-path="url(#cl)"><rect width="260" height="400" fill="none" stroke="#000" stroke-opacity="0.15" stroke-width="3"/></g></svg>