<svg xmlns="http://www.w3.org/2000/svg" viewBox="0 0 400 300" width="400" height="300"><clipPath id="cl"><rect x="0" y="0" width="400" height="300" rx="10"/></clipPath><g clip-path="url(#cl)"><defs><linearGradient id="fon" x1="0" y1="0" x2="0" y2="1">
      <stop offset="0" stop-color="#12556B"/><stop offset="1" stop-color="#051E2A"/></linearGradient></defs>
    <rect width="400" height="300" fill="url(#fon)"/><path d="M -10,45 C 100,36 200,54 410,40 L 410,58 C 200,68 100,50 -10,58 Z" fill="#2FD4C4" opacity="0.35"/><path d="M -10,150 C 100,141 200,159 410,145 L 410,164 C 200,172 100,154 -10,164 Z" fill="#2FD4C4" opacity="0.55"/><path d="M -10,255 C 100,246 200,264 410,250 L 410,268 C 200,278 100,260 -10,268 Z" fill="#2FD4C4" opacity="0.75"/></g><g clip-path="url(#cl)"><rect width="400" height="300" fill="none" stroke="#000" stroke-opacity="0.15" stroke-width="3"/></g></svg>