<svg xmlns="http://www.w3.org/2000/svg" viewBox="0 0 240 640" width="240" height="640"><clipPath id="cl"><path d="M 91,0 L 149,0 L 149,77 Q 204,128 204,224 L 204,589 Q 204,640 120,640 Q 36,640 36,589 L 36,224 Q 36,128 91,77 Z"/></clipPath><g clip-path="url(#cl)"><defs><linearGradient id="fon" x1="0" y1="0" x2="0" y2="1">
      <stop offset="0" stop-color="#12556B"/><stop offset="1" stop-color="#051E2A"/></linearGradient></defs>
    <rect width="240" height="640" fill="url(#fon)"/><path d="M -10,96 C 60,77 120,115 250,84 L 250,125 C 120,144 60,106 -10,125 Z" fill="#2FD4C4" opacity="0.35"/><path d="M -10,171 C 60,151 120,190 250,159 L 250,199 C 120,219 60,180 -10,199 Z" fill="#2FD4C4" opacity="0.55"/><path d="M -10,245 C 60,226 120,265 250,234 L 250,274 C 120,293 60,255 -10,274 Z" fill="#2FD4C4" opacity="0.75"/><path d="M -10,320 C 60,301 120,339 250,308 L 250,349 C 120,368 60,330 -10,349 Z" fill="#2FD4C4" opacity="0.35"/><path d="M -10,395 C 60,375 120,414 250,383 L 250,423 C 120,443 60,404 -10,423 Z" fill="#2FD4C4" opacity="0.55"/><path d="M -10,469 C 60,450 120,489 250,458 L 250,498 C 120,517 60,479 -10,498 Z" fill="#2FD4C4" opacity="0.75"/><path d="M -10,544 C 60,525 120,563 250,532 L 250,573 C 120,592 60,554 -10,573 Z" fill="#2FD4C4" opacity="0.35"/></g><g clip-path="url(#cl)"><rect width="240" height="640" fill="none" stroke="#000" stroke-opacity="0.15" stroke-width="3"/></g></svg>