<svg xmlns="http://www.w3.org/2000/svg" viewBox="0 0 160 160" width="160" height="160"><clipPath id="cl"><rect x="4" y="4" width="152" height="152" rx="18"/></clipPath><g clip-path="url(#cl)"><defs><linearGradient id="fon" x1="0" y1="0" x2="0" y2="1">
      <stop offset="0" stop-color="#12556B"/><stop offset="1" stop-color="#051E2A"/></linearGradient></defs>
    <rect width="160" height="160" fill="url(#fon)"/><path d="M -10,24 C 40,19 80,29 170,21 L 170,31 C 80,36 40,26 -10,31 Z" fill="#2FD4C4" opacity="0.35"/><path d="M -10,80 C 40,75 80,85 170,77 L 170,87 C 80,92 40,82 -10,87 Z" fill="#2FD4C4" opacity="0.55"/><path d="M -10,136 C 40,131 80,141 170,133 L 170,143 C 80,148 40,138 -10,143 Z" fill="#2FD4C4" opacity="0.75"/></g><g clip-path="url(#cl)"><rect width="160" height="160" fill="none" stroke="#000" stroke-opacity="0.15" stroke-width="3"/></g></svg>