<svg xmlns="http://www.w3.org/2000/svg" id="Layer_2" data-name="Layer 2" viewBox="0 0 183.69 183.68"><metadata xmlns:fl="https://football-logos.cc/guyana/guyana-national-team">dl1_4c23b206d2b2640e2bebfc4dc8fd643cca02afe75aac8dd4b6d2a3258149d73e</metadata><!-- Source: https://football-logos.cc --><defs data-source="https://football-logos.cc"><style>.cls-1{fill:#00a750}.cls-1,.cls-2,.cls-3,.cls-4,.cls-5{stroke-width:0}.cls-2{fill:#231f20}.cls-3{fill:#ed1941}.cls-4{fill:#ffcf01}.cls-5{fill:#fff}</style></defs><g id="Layer_1-2" data-name="Layer 1" data-source="https://football-logos.cc"><path d="M183.69 91.84c0 50.72-41.12 91.84-91.84 91.84S0 142.57 0 91.84 41.12 0 91.84 0s91.84 41.12 91.84 91.84" class="cls-1"></path><path d="M91.84 9.28c-45.52 0-82.56 37.04-82.56 82.56s37.04 82.57 82.57 82.57 82.56-37.04 82.56-82.57S137.37 9.28 91.84 9.28m0 167.92c-47.06 0-85.35-38.29-85.35-85.35S44.78 6.49 91.84 6.49s85.35 38.29 85.35 85.35-38.29 85.35-85.35 85.35" class="cls-4"></path><path d="m19.3 61.03 23.18-19.05-10.77 27.99z" class="cls-5"></path><path d="M40.53 44.67 20.68 60.98l10.63 7.66z" class="cls-4"></path><path d="M32.94 55.19 19.3 61.03l12.4 8.94z" class="cls-2"></path><path d="M30.89 57.77 20.76 62.1l9.21 6.64z" class="cls-3"></path><path d="M164.39 60.84 141.21 41.8l10.77 27.98z" class="cls-5"></path><path d="m143.15 44.49 19.86 16.31-10.63 7.66z" class="cls-4"></path><path d="m150.75 55 13.64 5.84-12.41 8.94z" class="cls-2"></path><path d="m152.8 57.58 10.13 4.33-9.21 6.64z" class="cls-3"></path><path d="M55.07 125.37c-.51-.12-1.05-.2-1.54-.45-.06.5-.26.94-.43 1.38.43.04.93.09 1.43.3.12-.48.33-.88.55-1.22M50.07 129.65h.19c-.03-.44.04-.86.12-1.22-.35.03-.71.08-1.07.08-.17 0-.34-.01-.51-.04.09.46.05.92.02 1.37.37-.09.79-.19 1.25-.19M64.86 125.15c.45-.36.94-.56 1.38-.71-.33-.43-.72-.82-.96-1.34-.41.41-.92.65-1.38.93.33.3.69.64.96 1.12M60.62 123.94c-.43-.28-.9-.53-1.27-.93-.25.5-.65.88-.99 1.29.39.17.83.38 1.22.73.3-.48.7-.81 1.05-1.09M47.85 131.12c.33.92.04 1.9.62 2.74.13-.08.28-.14.44-.17.18-.03.39-.12.63-.23.3-.13.67-.29 1.09-.37-.08-.43-.05-.83-.02-1.16.02-.27.03-.49 0-.67a.95.95 0 0 1 0-.41c-.18-.05-.36-.07-.54-.07-.73 0-1.41.35-2.17.35h-.05ZM55.56 127.19c.11.02.22.05.33.11.16.08.39.13.65.19.34.07.77.17 1.19.39.21-.43.5-.76.73-1.02.18-.2.33-.37.41-.54l.17-.24c-.62-.74-1.6-.79-2.35-1.37-.28.91-1.05 1.52-1.11 2.48M51.44 129.95q.135-.03.27-.03l.19.02.21.02c.14 0 .3-.02.47-.03.2-.02.43-.04.67-.04.17 0 .32 0 .48.03.06-.43.21-.8.33-1.1.1-.25.18-.46.2-.64q.03-.21.12-.39c-.81-.5-1.75-.25-2.64-.57.02.96-.54 1.79-.29 2.74M65.87 126.97c.21.25.46.55.65.94.39-.19.78-.27 1.1-.34.26-.06.48-.1.65-.19.15-.08.32-.12.48-.12-.12-.84-.77-1.45-.99-2.29-.77.54-1.75.55-2.4 1.26l.12.2c.08.17.22.34.39.55M61.23 126.45c.28.17.61.38.92.7.32-.3.66-.51.95-.67.23-.13.43-.25.56-.38.09-.09.2-.16.31-.22-.36-.82-1.21-1.19-1.7-1.95-.55.75-1.46 1.07-1.86 1.9.1.06.2.13.28.22.13.13.32.26.55.4M124.17 124.33c-.51-.36-1.06-.67-1.55-1.1-.25.95-.8 1.6-1.27 2.25.4.11.8.26 1.2.48.13-.23.28-.45.45-.64.36-.43.76-.74 1.16-.98M129.8 126.87c.09.52.11 1.09-.03 1.74.42.19.8.43 1.15.68.18-.6.36-1.23.82-1.82-.68-.14-1.3-.43-1.94-.6M124.27 127.64c.28.5.48 1.09.58 1.72.11-.08.22-.15.33-.23.62-.42 1.29-.71 1.95-.84h.03a4.6 4.6 0 0 1 1.53-.01c.3-1.62-.71-2.73-.86-4.25-1.32.84-2.85.69-3.96 2.01-.15.18-.28.38-.4.59.28.27.54.59.78.99v.02ZM126.01 132.52c.42-.15.87-.22 1.37-.22.47 0 .92.06 1.35.12.42.06.81.11 1.2.11.19 0 .36-.01.53-.04.32-.47.69-.95 1.24-1.33-1.26-.68-2.11-1.83-3.73-1.83-.2 0-.41.02-.63.05-.54.1-1.07.35-1.54.66-.29.2-.57.4-.84.61.04.8.02 1.59-.06 2.38.37-.23.73-.4 1.09-.52M122.57 132.5q.075.87.33 1.65c.26-.1.52-.21.77-.34.21-1.31.24-2.66.1-4.02-.06-.56-.22-1.12-.49-1.6-1.05-1.78-2.67-1.59-4.17-2.18.04.41 0 .78-.06 1.14l.11.17c.32.63.81 1.06 1.33 1.52.62.55 1.32 1.16 1.71 2.12.19.45.31.96.37 1.54M118.17 127.82c-1.06 1.44-2.7 2.22-2.63 4.52.03.61.21 1.23.49 1.8.05.11.11.21.17.32a1.13 1.13 0 0 1 .89-.16c.99.25 1.95.38 2.86.38.66 0 1.29-.07 1.89-.2-.19-.59-.32-1.21-.38-1.87-.04-.42-.12-.83-.29-1.21-.57-1.43-2.17-1.92-3-3.57" class="cls-4"></path><path d="M91.66 135.52c-.84 0-1.74-.23-2.61-.46-.84-.22-1.7-.44-2.59-.49-.16 0-.32-.01-.49-.01-.84 0-1.63.11-2.39.21-.66.09-1.28.18-1.85.18-.19 0-.37-.01-.53-.03-1.04-.13-2-.55-2.93-.95-.68-.3-1.32-.58-1.98-.74l-.41-.1c-1.24-.32-2.31-.59-3.03-.88l-.11-.04.11-.04c.73-.29 1.8-.56 3.03-.88l.41-.1c.66-.17 1.3-.45 1.98-.74.93-.4 1.89-.82 2.93-.95q.24-.03.54-.03c.56 0 1.19.09 1.85.18.77.1 1.55.21 2.39.21.16 0 .33 0 .49-.01.89-.05 1.76-.27 2.59-.49.87-.22 1.77-.46 2.61-.46s1.74.23 2.61.46c.84.22 1.7.44 2.59.49.16 0 .32.01.49.01.84 0 1.63-.11 2.39-.21.66-.09 1.28-.18 1.84-.18.2 0 .37.01.54.03 1.04.13 2 .55 2.93.95.68.3 1.32.57 1.98.74l.41.1c1.24.31 2.31.59 3.04.88l.11.04-.11.04c-.73.29-1.8.56-3.04.88l-.41.1c-.66.17-1.3.45-1.98.74-.93.4-1.89.82-2.93.95q-.24.03-.54.03c-.56 0-1.18-.09-1.85-.18-.77-.11-1.56-.21-2.39-.21-.16 0-.33 0-.49.01-.89.05-1.76.27-2.59.49-.87.22-1.77.46-2.61.46m12.52 8.16c1.85.11 3.77.23 5.63.23s3.36-.11 4.73-.35c3.54-.6 6.02-2.05 7.58-4.39.93.29 1.9.45 2.9.45.86 0 1.74-.11 2.62-.34.61-.16 1.2-.43 1.68-.8 1.78-1.45 1.31-3.2 1.7-4.94-.38.09-.74.13-1.09.13-.92 0-1.74-.23-2.55-.23-.34 0-.68.04-1.02.16-.4.13-.76.33-1.11.58-1.54 1.1-3.34 1.63-5.31 1.63-1 0-2.05-.14-3.13-.41.68.92 1.49 1.69 2.37 2.33-1.08 1.39-2.75 2.26-5.18 2.67-1.19.2-2.56.3-4.19.3-1.77 0-3.63-.11-5.43-.23-1.67-.1-3.41-.21-4.99-.21-2.72 0-4.66.32-6.11 1.02v-1.91c4.93-.12 9.53-.78 13.08-1.9 1.95-.62 3.49-1.34 4.57-2.15 1.22-.91 1.84-1.91 1.84-2.98q0-.15-.03-.3c-.17-1.23-2.04-1.7-4.87-2.42l-.4-.1c-.53-.14-1.11-.39-1.72-.65-.99-.43-2.12-.92-3.4-1.08a6 6 0 0 0-.75-.04c-.68 0-1.39.1-2.08.19-.71.1-1.44.2-2.16.2h-.39c-.72-.04-1.47-.23-2.26-.44-.97-.25-1.98-.51-3.04-.51s-2.07.26-3.04.51c-.79.2-1.54.4-2.26.44h-.39c-.72 0-1.45-.1-2.16-.2-.69-.09-1.4-.19-2.08-.19-.27 0-.51.01-.75.04-1.29.16-2.41.65-3.4 1.08-.61.27-1.19.52-1.72.65l-.4.1c-2.51.64-4.18 1.06-4.71 1.97-.14.23-.21.49-.21.75 0 1.06.62 2.06 1.84 2.98 1.09.81 2.62 1.53 4.57 2.15 3.55 1.12 8.16 1.78 13.1 1.9v1.91c-1.45-.71-3.39-1.03-6.12-1.03-1.59 0-3.32.11-4.99.21-1.8.11-3.66.23-5.43.23-1.63 0-3-.1-4.19-.3-2.98-.51-4.83-1.67-5.82-3.67l-.03-.05c2.4-1.25 4.42-3.06 5.54-5.28.11-.21.25-.41.3-.65.19-.88-.42-1.52-.51-2.35-.75.38-1.62.23-2.24.88-.17.17-.29.39-.37.61l-.83 1.74-.17.11c-.12 0-.23-.1-.18-.25l.59-1.8c.07-.23.11-.47.09-.71-.08-.89-.86-1.32-1.21-2.08-.59.6-1.47.72-1.86 1.53-.11.22-.16.46-.17.7l-.23 1.88c-.01.11-.1.17-.19.17s-.19-.06-.19-.19v-1.87c-.01-.24-.06-.48-.15-.7-.36-.82-1.24-.98-1.81-1.59-.37.75-1.17 1.15-1.28 2.04-.03.24 0 .48.06.71l.55 2.23c.04.14-.08.24-.19.24l-.17-.12-.87-2.12c-.08-.23-.2-.44-.37-.61-.62-.65-1.49-.51-2.24-.89-.1.83-.71 1.47-.52 2.35.05.23.16.45.3.65l1.11 1.54c.1.14-.02.3-.16.3l-.14-.06-1.31-1.41c-.15-.19-.33-.36-.54-.47-.29-.16-.58-.2-.87-.2-.37 0-.75.07-1.14.07-.13 0-.26 0-.39-.03.16.82-.23 1.62.23 2.4.12.21.29.38.49.53l1.51 1.11c.16.12.05.34-.11.34l-.1-.03-1.65-.92a1.74 1.74 0 0 0-.94-.3c-.74 0-1.31.52-2.05.63.41.73.3 1.61.97 2.2.18.16.4.27.63.35h.02c1.59.81 3.42 1.18 5.3 1.18 1.49 0 3.01-.24 4.48-.67q.045.15.12.3c1.48 2.95 4.15 4.73 8.17 5.41 1.37.23 2.92.35 4.73.35s3.78-.12 5.63-.23c1.73-.11 3.37-.21 4.87-.21 2.79 0 4.47.37 5.32 1.16.45.42.68 1.03.72 1.87v4.19a1.609 1.609 0 1 0 3.22 0v-4.27c.05-.8.29-1.38.72-1.79.84-.79 2.53-1.16 5.32-1.16 1.5 0 3.14.1 4.87.21" class="cls-4"></path><path d="m21.22 107.25 2.28-.36-.78-4.98 2.62-.41.84 5.38 2.4-.37-1.3-8.31-11.63 1.82.45 2.93 4.35-.68zM21.59 115.96c-.75-2.19.63-3.04 2.54-3.7 1.9-.65 3.56-.85 4.31 1.34.77 2.25-.68 3.07-2.59 3.73-1.9.65-3.5.87-4.27-1.38m9.15-3.13c-1.52-4.42-4.61-4.43-7.57-3.41s-5.4 2.91-3.88 7.34c1.53 4.45 4.63 4.46 7.57 3.45 2.98-1.02 5.41-2.93 3.88-7.39M32.12 129.72c-1.73 1.01-3.25 1.54-4.45-.51-1.17-2 .02-3.1 1.77-4.12 1.73-1.01 3.32-1.54 4.49.46 1.2 2.05-.06 3.14-1.8 4.17m3.88-5.39c-2.36-4.03-5.39-3.43-8.09-1.85s-4.72 3.91-2.36 7.96c2.38 4.07 5.41 3.46 8.1 1.89 2.72-1.59 4.73-3.94 2.35-8M42.86 138.01l1.87-1.55-5.65-6.83-1.88 1.55 1.89 2.28-7.2 5.96 1.88 2.27 7.2-5.96zM44.82 142.92l1.51-1.71 1.26 1.1c1.15 1.01 1 1.49.56 1.99-.42.48-.97.69-2.09-.3l-1.23-1.08Zm.5 4.98c-.46.52-1.08.79-2.29-.27l-1.33-1.17 1.7-1.93 1.37 1.2c1.2 1.06 1.03 1.61.54 2.17m2.22 2.08c.75-.86 1.04-2.24.46-3.25.99.46 2.01-.12 2.68-.88 1.17-1.33 1.01-3.13-1.54-5.38l-3.46-3.04-7.77 8.84 3.52 3.1c2.86 2.51 4.85 2.03 6.11.6M55.58 154.41l-2.77-1.69 3.95-3.41-1.19 5.1Zm-8.73-.39 2.67 1.63 1.6-1.39 3.87 2.36-.51 2.06 2.67 1.63 2.58-12.22-3.21-1.96-9.68 7.89ZM67.1 151.66l-2.77-1.15-4.5 10.89 6.36 2.63.93-2.25-3.62-1.49zM75.07 154.36l-2.9-.77-3.03 11.37 6.64 1.78.63-2.35-3.79-1.01zM84.06 168.02l2.96.15.22-4.4 5.04.26.11-2.3-5.03-.25.13-2.65 5.44.28.13-2.43-8.4-.43zM98.42 165.59l-.25-2.42 4.98-.51-.24-2.29-4.98.51-.22-2.17 5.53-.58-.25-2.41-8.48.87 1.21 11.72 8.48-.88-.25-2.41zM111.11 163.33l-.97.27-1.89-6.65 1.05-.3c2.05-.58 3.21-.39 4.01 2.36.78 2.76-.11 3.72-2.2 4.31m-1.91-9.16-4.48 1.27 3.21 11.33 4.28-1.21c3.59-1.02 4.91-3.78 3.92-7.3-1.01-3.56-3.41-5.08-6.93-4.08M122.96 159.01l-1.05-2.18 4.5-2.18-1-2.07-4.5 2.17-.96-1.97 5.01-2.41-1.06-2.19-7.67 3.7 5.12 10.61 7.67-3.7-1.05-2.19zM132.22 149.1l-1.22.86-1.72-2.43 1.22-.86c1.34-.95 2.07-.52 2.49.08.39.56.57 1.4-.77 2.35m3.23-4.09c-.89-1.26-2.64-2.96-6.33-.34l-3.68 2.61 6.81 9.61 2.43-1.72-2.57-3.63 5.32 1.69 2.97-2.11-5.59-1.33c2.2-1.76 1.4-3.7.64-4.76M144.37 141.39l-2.27 2.31-2.41-4.63 4.69 2.32Zm-7.83-2.81 5.47 11.23 2.19-2.23-.99-1.88 3.18-3.22 1.89.96 2.2-2.23-11.3-5.3-2.63 2.67ZM148.64 127.78l-1.96-1.44-5.23 7.17 1.96 1.43 1.75-2.39 7.55 5.51 1.73-2.38-7.55-5.51zM147.356 125.002l1.47-2.592 10.247 5.81-1.47 2.592zM160.85 118.94c-.85 2.16-2.45 1.9-4.33 1.17-1.87-.73-3.26-1.66-2.42-3.81.87-2.21 2.51-1.9 4.39-1.16 1.87.73 3.23 1.6 2.36 3.81m-1.25-6.64c-2.93-1.15-6.02-1.28-7.74 3.11-1.71 4.35.64 6.36 3.56 7.5 2.91 1.14 6 1.29 7.71-3.08 1.72-4.38-.63-6.4-3.53-7.53M168.04 99.59l-11.6-2.02-.51 2.96 7.39 1.28-8.14 3.01-.62 3.61 11.6 2.02.51-2.98-7.36-1.28 8.13-3.14zM62.79 60.81v3.3h10.94v-3.3h-2.99V47.63h-3.88l-4.07.64v2.76h3.76v9.78zM83.57 54.99c-1.96 0-2.78-.93-2.78-2.19s.8-2.16 2.58-2.16c2.16 0 2.83 1.08 2.83 2.16 0 1.24-.95 2.19-2.63 2.19m-.13 6.16c-1.67 0-2.5-.54-2.52-1.7H76.8c0 3.32 2.42 4.89 6.64 4.89 4.89 0 6.95-2.6 6.95-8.5s-1.75-8.45-7.06-8.45c-4.56 0-6.54 2.5-6.54 5.46 0 3.73 2.7 5.2 5.61 5.2 2.16 0 3.48-.8 4.04-1.8 0 3.68-.98 4.89-3.01 4.89M96.16 55.87c0-3.09.26-5.05 2.83-5.05 2.7 0 2.93 1.96 2.93 5.02s-.23 5.07-2.93 5.07-2.83-1.96-2.83-5.05m9.94-.02c0-4.74-1.29-8.45-7.11-8.45s-7.03 3.71-7.03 8.47 1.29 8.47 7.03 8.47 7.11-3.71 7.11-8.5M120.9 60.81h-8.89v-.31c0-2.88 8.89-2.16 8.89-7.49 0-3.12-1.39-5.61-6.36-5.61-4.71 0-6.31 2.55-6.31 6.02h3.94c0-1.78.72-2.7 2.42-2.7 1.44 0 2.21.72 2.21 1.96 0 3.22-8.65 1.75-8.7 8.27l-.05 3.17h12.85v-3.3Z" class="cls-5"></path><path d="m91.85 91.9-.01-.07v.08zM91.85 91.72c0-.16-.01-.32-.01-.48v.57-.09Z" class="cls-1"></path><path d="M63.44 34.29c1.32-.66 2.18-1.84 2.25-3.22l1.45 1.16 1.22-.61-3.06-6.08-5.16 2.6 1.04 2.05 2.48-1.25c.6 1.27.16 2.41-1.14 3.07-1.94.98-2.95-.29-3.86-2.1-.9-1.79-1.33-3.37.61-4.35 1.53-.77 1.98-.57 2.57-.02l2.71-1.37c-.79-1.36-2.85-2.58-6.38-.8-4.06 2.05-3.61 5.1-2.21 7.89 1.41 2.79 3.66 4.94 7.47 3.02M75.35 29.65c3.58-1 4.64-2.97 3.62-6.61l-1.76-6.31-2.91.81 1.75 6.28c.52 1.86.42 2.94-1.37 3.44-1.81.5-2.44-.37-2.95-2.23l-1.75-6.28-2.89.8 1.76 6.31c1.01 3.63 2.92 4.79 6.5 3.79M85.48 27.51l3.08-.26-.3-3.58 3.71-8.53-3.18.27-2.27 5.88-3.08-5.43-3.17.27 4.91 7.8zM98.33 18.16l1.26 5.08-3.23-.25zm-3.58 8.94.8-1.97 4.51.34.49 2.07 3.12.24-3.26-12.06-3.74-.28-5.04 11.43 3.12.24ZM109.64 21.62l2.34 8.4 3.38.94 3.15-11.35-2.89-.8-2.01 7.24-2.19-8.4-3.53-.98-3.15 11.35 2.91.8zM125.87 25.8l-.77 5.17-2.89-1.46 3.66-3.72Zm-6.71 6.9 1.48-1.52 4.04 2.03-.33 2.1 2.79 1.4 1.58-12.39-3.35-1.69-9 8.65 2.79 1.41Z" class="cls-5"></path><path d="M39.97 92.35c0-10.45 3.07-21.56 19.66-21.56 14.24 0 19.2 7.05 19.2 14.57H66.22c-.39-2.81-1.96-4.77-6.6-4.77-6.47 0-6.99 5.55-6.99 11.76s.46 11.82 6.92 11.82c3.46 0 6.2-2.61 6.66-6.53h-7.38v-9.01h20.05v24.63h-7.64l-1.89-4.57c-2.35 3.53-5.75 5.23-10.78 5.23-15.68 0-18.62-11.1-18.62-21.56M81.06 71.45h30.57v9.99H93.54v7.26h16.72v9.6H93.54v14.96H81.06zM113 71.45h30.57v9.99h-18.09v7.26h16.72v9.6h-16.72v14.96H113z" class="cls-4"></path><path d="m44.57 124.53.04.06.05.07c.19.22.48.36.8.36a1.054 1.054 0 0 0 .97-1.48c-6.97-9.37-11.1-20.97-11.1-33.53 0-6.34 1.07-12.43 3-18.12v-.03c.25-.71.51-1.41.77-2.11l.02-.05c.76-1.97 1.64-3.89 2.61-5.74.08-.15.15-.29.23-.44.23-.43.47-.86.71-1.28.18-.32.37-.65.56-.97.21-.35.42-.7.64-1.05.26-.41.52-.82.79-1.23.18-.26.35-.53.53-.79.41-.61.84-1.2 1.28-1.79l.13-.18c10.33-13.77 26.8-22.68 45.38-22.68 22.47 0 41.88 13.05 51.03 31.95l.09.18c.33.7.65 1.4.96 2.11.07.17.15.34.22.51.27.64.53 1.29.77 1.95.06.17.13.33.19.5l.1.26h-.01c1.3 3.6 2.23 7.37 2.76 11.27.02.14.03.28.05.42.11.84.2 1.68.27 2.53.04.44.07.88.1 1.32.02.33.04.65.05.98.04.81.06 1.63.06 2.45v.25l-.01.25c-.03 3.72-.43 7.35-1.15 10.86l-.15.7c-.09.41-.18.82-.28 1.23-.11.45-.22.89-.34 1.33-.09.34-.19.68-.28 1.02-.11.38-.23.76-.34 1.14-.16.5-.32 1-.49 1.5-.1.29-.2.58-.31.87-.18.5-.36.99-.56 1.48l-.42 1.05c-.16.37-.32.74-.48 1.1-.11.24-.22.48-.32.72-.27.6-.56 1.19-.86 1.77-.11.22-.22.45-.34.67-.19.36-.38.73-.58 1.09-.12.22-.24.43-.36.64-.32.57-.65 1.14-1 1.7-.14.22-.28.45-.42.67-.32.51-.65 1.01-.98 1.51-.18.26-.35.52-.53.78-.21.3-.43.6-.65.9l-.12.17-.03.04c-.1.16-.17.36-.17.56 0 .58.47 1.05 1.05 1.05.32 0 .6-.15.8-.37s.03-.04.03-.04l.06-.09c7.41-10.08 11.33-22.02 11.33-34.54 0-32.28-26.35-58.54-58.74-58.54S33.24 57.71 33.24 89.99c0 12.52 3.91 24.46 11.32 34.54" class="cls-4"></path></g><!-- source: https://football-logos.cc --></svg>